<?xml version="1.0" encoding="UTF-8" standalone="no"?>
<!-- Created with Inkscape (http://www.inkscape.org/) -->

<svg
   version="1.1"
   id="svg16"
   width="800"
   height="800"
   viewBox="0 0 200 200"
   sodipodi:docname="bare_så_80_logo_nobg.svg"
   inkscape:version="1.2 (dc2aedaf03, 2022-05-15)"
   inkscape:export-filename="album_art.png"
   inkscape:export-xdpi="480"
   inkscape:export-ydpi="480"
   xmlns:inkscape="http://www.inkscape.org/namespaces/inkscape"
   xmlns:sodipodi="http://sodipodi.sourceforge.net/DTD/sodipodi-0.dtd"
   xmlns="http://www.w3.org/2000/svg"
   xmlns:svg="http://www.w3.org/2000/svg">
  <sodipodi:namedview
     id="namedview1179"
     pagecolor="#ffffff"
     bordercolor="#000000"
     borderopacity="0.25"
     inkscape:showpageshadow="2"
     inkscape:pageopacity="0.0"
     inkscape:pagecheckerboard="0"
     inkscape:deskcolor="#d1d1d1"
     showgrid="false"
     inkscape:zoom="0.417193"
     inkscape:cx="-35.954582"
     inkscape:cy="642.38853"
     inkscape:window-width="2400"
     inkscape:window-height="1494"
     inkscape:window-x="-11"
     inkscape:window-y="-11"
     inkscape:window-maximized="1"
     inkscape:current-layer="svg16" />
  <defs
     id="defs20">
    <filter
       style="color-interpolation-filters:sRGB"
       id="filter1697"
       x="-0.012764399"
       y="-0.017698139"
       width="1.0521213"
       height="1.0722674">
      <feFlood
         flood-opacity="0.498039"
         flood-color="rgb(0,0,0)"
         result="flood"
         id="feFlood1687" />
      <feComposite
         in="flood"
         in2="SourceGraphic"
         operator="in"
         result="composite1"
         id="feComposite1689" />
      <feGaussianBlur
         in="composite1"
         stdDeviation="0.2"
         result="blur"
         id="feGaussianBlur1691" />
      <feOffset
         dx="1"
         dy="1"
         result="offset"
         id="feOffset1693" />
      <feComposite
         in="SourceGraphic"
         in2="offset"
         operator="over"
         result="composite2"
         id="feComposite1695" />
    </filter>
    <filter
       style="color-interpolation-filters:sRGB"
       id="filter1709"
       x="-0.0058541057"
       y="-0.012262162"
       width="1.0239043"
       height="1.0500705">
      <feFlood
         flood-opacity="0.498039"
         flood-color="rgb(0,0,0)"
         result="flood"
         id="feFlood1699" />
      <feComposite
         in="flood"
         in2="SourceGraphic"
         operator="in"
         result="composite1"
         id="feComposite1701" />
      <feGaussianBlur
         in="composite1"
         stdDeviation="0.2"
         result="blur"
         id="feGaussianBlur1703" />
      <feOffset
         dx="1"
         dy="1"
         result="offset"
         id="feOffset1705" />
      <feComposite
         in="SourceGraphic"
         in2="offset"
         operator="over"
         result="composite2"
         id="feComposite1707" />
    </filter>
    <filter
       y="-0.17613444"
       height="1.3522689"
       style="color-interpolation-filters:sRGB"
       id="filter1769"
       x="-0.12630735"
       width="1.2526147">
      <feGaussianBlur
         stdDeviation="5"
         result="result6"
         id="feGaussianBlur1759" />
      <feComposite
         result="result8"
         operator="atop"
         id="feComposite1761"
         in="SourceGraphic"
         in2="result6" />
      <feComposite
         result="result9"
         operator="over"
         id="feComposite1763"
         in="result8"
         in2="SourceAlpha" />
      <feColorMatrix
         values="1 0 0 0 0 0 1 0 0 0 0 0 1 0 0 0 0 0 1 0 "
         result="result10"
         id="feColorMatrix1765" />
      <feBlend
         in="result10"
         mode="normal"
         in2="result6"
         id="feBlend1767" />
    </filter>
    <filter
       style="color-interpolation-filters:sRGB"
       id="filter2225"
       x="-0.025528797"
       y="-0.035396278"
       width="1.0537168"
       height="1.1039766">
      <feFlood
         flood-opacity="0.498039"
         flood-color="rgb(0,0,0)"
         result="flood"
         id="feFlood2215" />
      <feComposite
         in="flood"
         in2="SourceGraphic"
         operator="in"
         result="composite1"
         id="feComposite2217" />
      <feGaussianBlur
         in="composite1"
         stdDeviation="0.4"
         result="blur"
         id="feGaussianBlur2219" />
      <feOffset
         dx="0.1"
         dy="0.9"
         result="offset"
         id="feOffset2221" />
      <feComposite
         in="SourceGraphic"
         in2="offset"
         operator="over"
         result="composite2"
         id="feComposite2223" />
    </filter>
  </defs>
  <path
     d="M -201.11471,-201.11474 H 401.1147 v 602.22943 h -602.22941 z"
     style="display:none;fill:#170029;fill-opacity:1;fill-rule:evenodd;stroke:#1a1a18;stroke-width:0.302226;stroke-linecap:butt;stroke-linejoin:miter;stroke-miterlimit:22.9256;stroke-dasharray:none;stroke-opacity:1"
     id="path24"
     inkscape:label="Background" />
  <g
     id="g9649"
     transform="matrix(0.05686062,0,0,0.0535429,77.656793,155.82106)"
     style="display:none;stroke-width:3.83827;stroke-dasharray:none"
     inkscape:label="Grid bottom">
    <line
       x1="219.56291"
       y1="202.59392"
       x2="-14546.043"
       y2="4159.0259"
       fill="rgba(255, 255, 255, .5)"
       id="line9549"
       style="stroke:#61a1ac;stroke-width:3.83827;stroke-dasharray:none;stroke-opacity:1" />
    <line
       x1="241.26601"
       y1="202.59392"
       x2="-13293.873"
       y2="4159.0259"
       fill="rgba(255, 255, 255, .5)"
       id="line9551"
       style="stroke:#61a1ac;stroke-width:3.83827;stroke-dasharray:none;stroke-opacity:1" />
    <line
       x1="262.96909"
       y1="202.59392"
       x2="-12041.702"
       y2="4159.0259"
       fill="rgba(255, 255, 255, .5)"
       id="line9553"
       style="stroke:#61a1ac;stroke-width:3.83827;stroke-dasharray:none;stroke-opacity:1" />
    <line
       x1="284.67218"
       y1="202.59392"
       x2="-10789.532"
       y2="4159.0259"
       fill="rgba(255, 255, 255, .5)"
       id="line9555"
       style="stroke:#61a1ac;stroke-width:3.83827;stroke-dasharray:none;stroke-opacity:1" />
    <line
       x1="306.37527"
       y1="202.59392"
       x2="-9537.3623"
       y2="4159.0259"
       fill="rgba(255, 255, 255, .5)"
       id="line9557"
       style="stroke:#61a1ac;stroke-width:3.83827;stroke-dasharray:none;stroke-opacity:1" />
    <line
       x1="328.07837"
       y1="202.59392"
       x2="-8285.1914"
       y2="4159.0259"
       fill="rgba(255, 255, 255, .5)"
       id="line9559"
       style="stroke:#61a1ac;stroke-width:3.83827;stroke-dasharray:none;stroke-opacity:1" />
    <line
       x1="349.78146"
       y1="202.59392"
       x2="-7033.0215"
       y2="4159.0259"
       fill="rgba(255, 255, 255, .5)"
       id="line9561"
       style="stroke:#61a1ac;stroke-width:3.83827;stroke-dasharray:none;stroke-opacity:1" />
    <line
       x1="371.48456"
       y1="202.59392"
       x2="-5780.8511"
       y2="4159.0259"
       fill="rgba(255, 255, 255, .5)"
       id="line9563"
       style="stroke:#61a1ac;stroke-width:3.83827;stroke-dasharray:none;stroke-opacity:1" />
    <line
       x1="393.18762"
       y1="202.59392"
       x2="-4528.6812"
       y2="4159.0259"
       fill="rgba(255, 255, 255, .5)"
       id="line9565"
       style="stroke:#61a1ac;stroke-width:3.83827;stroke-dasharray:none;stroke-opacity:1" />
    <line
       x1="414.89072"
       y1="202.59392"
       x2="-3276.5107"
       y2="4159.0259"
       fill="rgba(255, 255, 255, .5)"
       id="line9567"
       style="stroke:#61a1ac;stroke-width:3.83827;stroke-dasharray:none;stroke-opacity:1" />
    <line
       x1="436.59381"
       y1="202.59392"
       x2="-2024.3405"
       y2="4159.0259"
       fill="rgba(255, 255, 255, .5)"
       id="line9569"
       style="stroke:#61a1ac;stroke-width:3.83827;stroke-dasharray:none;stroke-opacity:1" />
    <line
       x1="458.29691"
       y1="202.59392"
       x2="-772.17023"
       y2="4159.0259"
       fill="rgba(255, 255, 255, .5)"
       id="line9571"
       style="stroke:#61a1ac;stroke-width:3.83827;stroke-dasharray:none;stroke-opacity:1" />
    <line
       x1="480"
       y1="202.59392"
       x2="480"
       y2="4159.0259"
       fill="rgba(255, 255, 255, .5)"
       id="line9573"
       style="stroke:#61a1ac;stroke-width:3.83827;stroke-dasharray:none;stroke-opacity:1" />
    <line
       x1="501.70309"
       y1="202.59392"
       x2="1732.1703"
       y2="4159.0259"
       fill="rgba(255, 255, 255, .5)"
       id="line9575"
       style="stroke:#61a1ac;stroke-width:3.83827;stroke-dasharray:none;stroke-opacity:1" />
    <line
       x1="523.40619"
       y1="202.59392"
       x2="2984.3406"
       y2="4159.0259"
       fill="rgba(255, 255, 255, .5)"
       id="line9577"
       style="stroke:#61a1ac;stroke-width:3.83827;stroke-dasharray:none;stroke-opacity:1" />
    <line
       x1="545.10925"
       y1="202.59392"
       x2="4236.5107"
       y2="4159.0259"
       fill="rgba(255, 255, 255, .5)"
       id="line9579"
       style="stroke:#61a1ac;stroke-width:3.83827;stroke-dasharray:none;stroke-opacity:1" />
    <line
       x1="566.81238"
       y1="202.59392"
       x2="5488.6812"
       y2="4159.0259"
       fill="rgba(255, 255, 255, .5)"
       id="line9581"
       style="stroke:#61a1ac;stroke-width:3.83827;stroke-dasharray:none;stroke-opacity:1" />
    <line
       x1="588.51544"
       y1="202.59392"
       x2="6740.8511"
       y2="4159.0259"
       fill="rgba(255, 255, 255, .5)"
       id="line9583"
       style="stroke:#61a1ac;stroke-width:3.83827;stroke-dasharray:none;stroke-opacity:1" />
    <line
       x1="610.21857"
       y1="202.59392"
       x2="7993.0215"
       y2="4159.0259"
       fill="rgba(255, 255, 255, .5)"
       id="line9585"
       style="stroke:#61a1ac;stroke-width:3.83827;stroke-dasharray:none;stroke-opacity:1" />
    <line
       x1="631.92163"
       y1="202.59392"
       x2="9245.1914"
       y2="4159.0259"
       fill="rgba(255, 255, 255, .5)"
       id="line9587"
       style="stroke:#61a1ac;stroke-width:3.83827;stroke-dasharray:none;stroke-opacity:1" />
    <line
       x1="653.62476"
       y1="202.59392"
       x2="10497.362"
       y2="4159.0259"
       fill="rgba(255, 255, 255, .5)"
       id="line9589"
       style="stroke:#61a1ac;stroke-width:3.83827;stroke-dasharray:none;stroke-opacity:1" />
    <line
       x1="675.32782"
       y1="202.59392"
       x2="11749.532"
       y2="4159.0259"
       fill="rgba(255, 255, 255, .5)"
       id="line9591"
       style="stroke:#61a1ac;stroke-width:3.83827;stroke-dasharray:none;stroke-opacity:1" />
    <line
       x1="697.03088"
       y1="202.59392"
       x2="13001.702"
       y2="4159.0259"
       fill="rgba(255, 255, 255, .5)"
       id="line9593"
       style="stroke:#61a1ac;stroke-width:3.83827;stroke-dasharray:none;stroke-opacity:1" />
    <line
       x1="718.73401"
       y1="202.59392"
       x2="14253.873"
       y2="4159.0259"
       fill="rgba(255, 255, 255, .5)"
       id="line9595"
       style="stroke:#61a1ac;stroke-width:3.83827;stroke-dasharray:none;stroke-opacity:1" />
    <line
       x1="740.43707"
       y1="202.59392"
       x2="15506.043"
       y2="4159.0259"
       fill="rgba(255, 255, 255, .5)"
       id="line9597"
       style="stroke:#61a1ac;stroke-width:3.83827;stroke-dasharray:none;stroke-opacity:1" />
    <line
       x1="219.56291"
       y1="202.59392"
       x2="740.43707"
       y2="202.59392"
       fill="#61a1ac"
       id="line9599"
       style="opacity:1;fill:none;stroke:#ffffff;stroke-width:3.83827;stroke-dasharray:none;stroke-opacity:0.533333" />
    <line
       x1="208.4442"
       y1="205.57317"
       x2="751.55579"
       y2="205.57317"
       fill="#61a1ac"
       id="line9601"
       style="opacity:1;fill:none;stroke:#ffffff;stroke-width:3.83827;stroke-dasharray:none;stroke-opacity:0.533333" />
    <line
       x1="196.33377"
       y1="208.81815"
       x2="763.6662"
       y2="208.81815"
       fill="#61a1ac"
       id="line9603"
       style="opacity:1;fill:none;stroke:#ffffff;stroke-width:3.83827;stroke-dasharray:none;stroke-opacity:0.533333" />
    <line
       x1="183.09277"
       y1="212.36606"
       x2="776.90723"
       y2="212.36606"
       fill="#61a1ac"
       id="line9605"
       style="opacity:1;fill:none;stroke:#ffffff;stroke-width:3.83827;stroke-dasharray:none;stroke-opacity:0.533333" />
    <line
       x1="168.55511"
       y1="216.26141"
       x2="791.44489"
       y2="216.26141"
       fill="#61a1ac"
       id="line9607"
       style="opacity:1;fill:none;stroke:#ffffff;stroke-width:3.83827;stroke-dasharray:none;stroke-opacity:0.533333" />
    <line
       x1="152.52052"
       y1="220.55788"
       x2="807.47949"
       y2="220.55788"
       fill="#61a1ac"
       id="line9609"
       style="opacity:1;fill:none;stroke:#ffffff;stroke-width:3.83827;stroke-dasharray:none;stroke-opacity:0.533333" />
    <line
       x1="134.74524"
       y1="225.32074"
       x2="825.25476"
       y2="225.32074"
       fill="#61a1ac"
       id="line9611"
       style="opacity:1;fill:none;stroke:#ffffff;stroke-width:3.83827;stroke-dasharray:none;stroke-opacity:0.533333" />
    <line
       x1="114.92957"
       y1="230.63034"
       x2="845.07043"
       y2="230.63034"
       fill="#61a1ac"
       id="line9613"
       style="opacity:1;fill:none;stroke:#ffffff;stroke-width:3.83827;stroke-dasharray:none;stroke-opacity:0.533333" />
    <line
       x1="92.700775"
       y1="236.58653"
       x2="867.29926"
       y2="236.58653"
       fill="#61a1ac"
       id="line9615"
       style="opacity:1;fill:none;stroke:#ffffff;stroke-width:3.83827;stroke-dasharray:none;stroke-opacity:0.533333" />
    <line
       x1="67.589493"
       y1="243.31508"
       x2="892.41052"
       y2="243.31508"
       fill="#61a1ac"
       id="line9617"
       style="opacity:1;fill:none;stroke:#ffffff;stroke-width:3.83827;stroke-dasharray:none;stroke-opacity:0.533333" />
    <line
       x1="38.996166"
       y1="250.97664"
       x2="921.00385"
       y2="250.97664"
       fill="#61a1ac"
       id="line9619"
       style="opacity:1;fill:none;stroke:#ffffff;stroke-width:3.83827;stroke-dasharray:none;stroke-opacity:0.533333" />
    <line
       x1="6.1425924"
       y1="259.77972"
       x2="953.85742"
       y2="259.77972"
       fill="#61a1ac"
       id="line9621"
       style="opacity:1;fill:none;stroke:#ffffff;stroke-width:3.83827;stroke-dasharray:none;stroke-opacity:0.533333" />
    <line
       x1="-32"
       y1="270"
       x2="992"
       y2="270"
       fill="#61a1ac"
       id="line9623"
       style="opacity:1;fill:none;stroke:#ffffff;stroke-width:3.83827;stroke-dasharray:none;stroke-opacity:0.533333" />
    <line
       x1="-76.820618"
       y1="282.00964"
       x2="1036.8207"
       y2="282.00964"
       fill="#61a1ac"
       id="line9625"
       style="opacity:1;fill:none;stroke:#ffffff;stroke-width:3.83827;stroke-dasharray:none;stroke-opacity:0.533333" />
    <line
       x1="-130.2413"
       y1="296.32367"
       x2="1090.2413"
       y2="296.32367"
       fill="#61a1ac"
       id="line9627"
       style="opacity:1;fill:none;stroke:#ffffff;stroke-width:3.83827;stroke-dasharray:none;stroke-opacity:0.533333" />
    <line
       x1="-194.99998"
       y1="313.67572"
       x2="1155"
       y2="313.67572"
       fill="#61a1ac"
       id="line9629"
       style="opacity:1;fill:none;stroke:#ffffff;stroke-width:3.83827;stroke-dasharray:none;stroke-opacity:0.533333" />
    <line
       x1="-275.1347"
       y1="335.14774"
       x2="1235.1346"
       y2="335.14774"
       fill="#61a1ac"
       id="line9631"
       style="opacity:1;fill:none;stroke:#ffffff;stroke-width:3.83827;stroke-dasharray:none;stroke-opacity:0.533333" />
    <line
       x1="-376.85944"
       y1="362.40482"
       x2="1336.8595"
       y2="362.40482"
       fill="#61a1ac"
       id="line9633"
       style="opacity:1;fill:none;stroke:#ffffff;stroke-width:3.83827;stroke-dasharray:none;stroke-opacity:0.533333" />
    <line
       x1="-510.25778"
       y1="398.14877"
       x2="1470.2578"
       y2="398.14877"
       fill="#61a1ac"
       id="line9635"
       style="opacity:1;fill:none;stroke:#ffffff;stroke-width:3.83827;stroke-dasharray:none;stroke-opacity:0.533333" />
    <line
       x1="-692.85052"
       y1="447.07437"
       x2="1652.8505"
       y2="447.07437"
       fill="#61a1ac"
       id="line9637"
       style="opacity:1;fill:none;stroke:#ffffff;stroke-width:3.83827;stroke-dasharray:none;stroke-opacity:0.533333" />
    <line
       x1="-958.0025"
       y1="518.12164"
       x2="1918.0026"
       y2="518.12164"
       fill="#61a1ac"
       id="line9639"
       style="opacity:1;fill:none;stroke:#ffffff;stroke-width:3.83827;stroke-dasharray:none;stroke-opacity:0.533333" />
    <line
       x1="-1378.064"
       y1="630.67676"
       x2="2338.064"
       y2="630.67676"
       fill="#61a1ac"
       id="line9641"
       style="opacity:1;fill:none;stroke:#ffffff;stroke-width:3.83827;stroke-dasharray:none;stroke-opacity:0.533333" />
    <line
       x1="-2144.8091"
       y1="836.12549"
       x2="3104.8091"
       y2="836.12549"
       fill="#61a1ac"
       id="line9643"
       style="opacity:1;fill:none;stroke:#ffffff;stroke-width:3.83827;stroke-dasharray:none;stroke-opacity:0.533333" />
    <line
       x1="-3988.9619"
       y1="1330.2648"
       x2="4948.9619"
       y2="1330.2648"
       fill="#61a1ac"
       id="line9645"
       style="opacity:1;fill:none;stroke:#ffffff;stroke-width:3.83827;stroke-dasharray:none;stroke-opacity:0.533333" />
    <line
       x1="-14546.043"
       y1="4159.0259"
       x2="15506.043"
       y2="4159.0259"
       fill="#61a1ac"
       id="line9647"
       style="opacity:1;fill:none;stroke:#ffffff;stroke-width:3.83827;stroke-dasharray:none;stroke-opacity:0.533333" />
  </g>
  <g
     id="g7890"
     transform="matrix(0.05686062,0,0,-0.0535429,74.394963,129.61246)"
     style="display:none;stroke-width:3.83827;stroke-dasharray:none"
     inkscape:label="Grid top">
    <line
       x1="219.56291"
       y1="202.59392"
       x2="-14546.043"
       y2="4159.0259"
       fill="rgba(255, 255, 255, .5)"
       id="line7734"
       style="stroke:#61a1ac;stroke-width:3.83827;stroke-dasharray:none;stroke-opacity:1" />
    <line
       x1="241.26601"
       y1="202.59392"
       x2="-13293.873"
       y2="4159.0259"
       fill="rgba(255, 255, 255, .5)"
       id="line7736"
       style="stroke:#61a1ac;stroke-width:3.83827;stroke-dasharray:none;stroke-opacity:1" />
    <line
       x1="262.96909"
       y1="202.59392"
       x2="-12041.702"
       y2="4159.0259"
       fill="rgba(255, 255, 255, .5)"
       id="line7738"
       style="stroke:#61a1ac;stroke-width:3.83827;stroke-dasharray:none;stroke-opacity:1" />
    <line
       x1="284.67218"
       y1="202.59392"
       x2="-10789.532"
       y2="4159.0259"
       fill="rgba(255, 255, 255, .5)"
       id="line7740"
       style="stroke:#61a1ac;stroke-width:3.83827;stroke-dasharray:none;stroke-opacity:1" />
    <line
       x1="306.37527"
       y1="202.59392"
       x2="-9537.3623"
       y2="4159.0259"
       fill="rgba(255, 255, 255, .5)"
       id="line7742"
       style="stroke:#61a1ac;stroke-width:3.83827;stroke-dasharray:none;stroke-opacity:1" />
    <line
       x1="328.07837"
       y1="202.59392"
       x2="-8285.1914"
       y2="4159.0259"
       fill="rgba(255, 255, 255, .5)"
       id="line7744"
       style="stroke:#61a1ac;stroke-width:3.83827;stroke-dasharray:none;stroke-opacity:1" />
    <line
       x1="349.78146"
       y1="202.59392"
       x2="-7033.0215"
       y2="4159.0259"
       fill="rgba(255, 255, 255, .5)"
       id="line7746"
       style="stroke:#61a1ac;stroke-width:3.83827;stroke-dasharray:none;stroke-opacity:1" />
    <line
       x1="371.48456"
       y1="202.59392"
       x2="-5780.8511"
       y2="4159.0259"
       fill="rgba(255, 255, 255, .5)"
       id="line7748"
       style="stroke:#61a1ac;stroke-width:3.83827;stroke-dasharray:none;stroke-opacity:1" />
    <line
       x1="393.18762"
       y1="202.59392"
       x2="-4528.6812"
       y2="4159.0259"
       fill="rgba(255, 255, 255, .5)"
       id="line7750"
       style="stroke:#61a1ac;stroke-width:3.83827;stroke-dasharray:none;stroke-opacity:1" />
    <line
       x1="414.89072"
       y1="202.59392"
       x2="-3276.5107"
       y2="4159.0259"
       fill="rgba(255, 255, 255, .5)"
       id="line7752"
       style="stroke:#61a1ac;stroke-width:3.83827;stroke-dasharray:none;stroke-opacity:1" />
    <line
       x1="436.59381"
       y1="202.59392"
       x2="-2024.3405"
       y2="4159.0259"
       fill="rgba(255, 255, 255, .5)"
       id="line7754"
       style="stroke:#61a1ac;stroke-width:3.83827;stroke-dasharray:none;stroke-opacity:1" />
    <line
       x1="458.29691"
       y1="202.59392"
       x2="-772.17023"
       y2="4159.0259"
       fill="rgba(255, 255, 255, .5)"
       id="line7756"
       style="stroke:#61a1ac;stroke-width:3.83827;stroke-dasharray:none;stroke-opacity:1" />
    <line
       x1="480"
       y1="202.59392"
       x2="480"
       y2="4159.0259"
       fill="rgba(255, 255, 255, .5)"
       id="line7758"
       style="stroke:#61a1ac;stroke-width:3.83827;stroke-dasharray:none;stroke-opacity:1" />
    <line
       x1="501.70309"
       y1="202.59392"
       x2="1732.1703"
       y2="4159.0259"
       fill="rgba(255, 255, 255, .5)"
       id="line7760"
       style="stroke:#61a1ac;stroke-width:3.83827;stroke-dasharray:none;stroke-opacity:1" />
    <line
       x1="523.40619"
       y1="202.59392"
       x2="2984.3406"
       y2="4159.0259"
       fill="rgba(255, 255, 255, .5)"
       id="line7762"
       style="stroke:#61a1ac;stroke-width:3.83827;stroke-dasharray:none;stroke-opacity:1" />
    <line
       x1="545.10925"
       y1="202.59392"
       x2="4236.5107"
       y2="4159.0259"
       fill="rgba(255, 255, 255, .5)"
       id="line7764"
       style="stroke:#61a1ac;stroke-width:3.83827;stroke-dasharray:none;stroke-opacity:1" />
    <line
       x1="566.81238"
       y1="202.59392"
       x2="5488.6812"
       y2="4159.0259"
       fill="rgba(255, 255, 255, .5)"
       id="line7766"
       style="stroke:#61a1ac;stroke-width:3.83827;stroke-dasharray:none;stroke-opacity:1" />
    <line
       x1="588.51544"
       y1="202.59392"
       x2="6740.8511"
       y2="4159.0259"
       fill="rgba(255, 255, 255, .5)"
       id="line7768"
       style="stroke:#61a1ac;stroke-width:3.83827;stroke-dasharray:none;stroke-opacity:1" />
    <line
       x1="610.21857"
       y1="202.59392"
       x2="7993.0215"
       y2="4159.0259"
       fill="rgba(255, 255, 255, .5)"
       id="line7770"
       style="stroke:#61a1ac;stroke-width:3.83827;stroke-dasharray:none;stroke-opacity:1" />
    <line
       x1="631.92163"
       y1="202.59392"
       x2="9245.1914"
       y2="4159.0259"
       fill="rgba(255, 255, 255, .5)"
       id="line7772"
       style="stroke:#61a1ac;stroke-width:3.83827;stroke-dasharray:none;stroke-opacity:1" />
    <line
       x1="653.62476"
       y1="202.59392"
       x2="10497.362"
       y2="4159.0259"
       fill="rgba(255, 255, 255, .5)"
       id="line7774"
       style="stroke:#61a1ac;stroke-width:3.83827;stroke-dasharray:none;stroke-opacity:1" />
    <line
       x1="675.32782"
       y1="202.59392"
       x2="11749.532"
       y2="4159.0259"
       fill="rgba(255, 255, 255, .5)"
       id="line7776"
       style="stroke:#61a1ac;stroke-width:3.83827;stroke-dasharray:none;stroke-opacity:1" />
    <line
       x1="697.03088"
       y1="202.59392"
       x2="13001.702"
       y2="4159.0259"
       fill="rgba(255, 255, 255, .5)"
       id="line7778"
       style="stroke:#61a1ac;stroke-width:3.83827;stroke-dasharray:none;stroke-opacity:1" />
    <line
       x1="718.73401"
       y1="202.59392"
       x2="14253.873"
       y2="4159.0259"
       fill="rgba(255, 255, 255, .5)"
       id="line7780"
       style="stroke:#61a1ac;stroke-width:3.83827;stroke-dasharray:none;stroke-opacity:1" />
    <line
       x1="740.43707"
       y1="202.59392"
       x2="15506.043"
       y2="4159.0259"
       fill="rgba(255, 255, 255, .5)"
       id="line7782"
       style="stroke:#61a1ac;stroke-width:3.83827;stroke-dasharray:none;stroke-opacity:1" />
    <line
       x1="219.56291"
       y1="202.59392"
       x2="740.43707"
       y2="202.59392"
       fill="#61a1ac"
       id="line7784"
       style="opacity:1;fill:none;stroke:#ffffff;stroke-width:3.83827;stroke-dasharray:none;stroke-opacity:0.533333" />
    <line
       x1="208.4442"
       y1="205.57317"
       x2="751.55579"
       y2="205.57317"
       fill="#61a1ac"
       id="line7786"
       style="opacity:1;fill:none;stroke:#ffffff;stroke-width:3.83827;stroke-dasharray:none;stroke-opacity:0.533333" />
    <line
       x1="196.33377"
       y1="208.81815"
       x2="763.6662"
       y2="208.81815"
       fill="#61a1ac"
       id="line7788"
       style="opacity:1;fill:none;stroke:#ffffff;stroke-width:3.83827;stroke-dasharray:none;stroke-opacity:0.533333" />
    <line
       x1="183.09277"
       y1="212.36606"
       x2="776.90723"
       y2="212.36606"
       fill="#61a1ac"
       id="line7790"
       style="opacity:1;fill:none;stroke:#ffffff;stroke-width:3.83827;stroke-dasharray:none;stroke-opacity:0.533333" />
    <line
       x1="168.55511"
       y1="216.26141"
       x2="791.44489"
       y2="216.26141"
       fill="#61a1ac"
       id="line7792"
       style="opacity:1;fill:none;stroke:#ffffff;stroke-width:3.83827;stroke-dasharray:none;stroke-opacity:0.533333" />
    <line
       x1="152.52052"
       y1="220.55788"
       x2="807.47949"
       y2="220.55788"
       fill="#61a1ac"
       id="line7794"
       style="opacity:1;fill:none;stroke:#ffffff;stroke-width:3.83827;stroke-dasharray:none;stroke-opacity:0.533333" />
    <line
       x1="134.74524"
       y1="225.32074"
       x2="825.25476"
       y2="225.32074"
       fill="#61a1ac"
       id="line7796"
       style="opacity:1;fill:none;stroke:#ffffff;stroke-width:3.83827;stroke-dasharray:none;stroke-opacity:0.533333" />
    <line
       x1="114.92957"
       y1="230.63034"
       x2="845.07043"
       y2="230.63034"
       fill="#61a1ac"
       id="line7798"
       style="opacity:1;fill:none;stroke:#ffffff;stroke-width:3.83827;stroke-dasharray:none;stroke-opacity:0.533333" />
    <line
       x1="92.700775"
       y1="236.58653"
       x2="867.29926"
       y2="236.58653"
       fill="#61a1ac"
       id="line7800"
       style="opacity:1;fill:none;stroke:#ffffff;stroke-width:3.83827;stroke-dasharray:none;stroke-opacity:0.533333" />
    <line
       x1="67.589493"
       y1="243.31508"
       x2="892.41052"
       y2="243.31508"
       fill="#61a1ac"
       id="line7802"
       style="opacity:1;fill:none;stroke:#ffffff;stroke-width:3.83827;stroke-dasharray:none;stroke-opacity:0.533333" />
    <line
       x1="38.996166"
       y1="250.97664"
       x2="921.00385"
       y2="250.97664"
       fill="#61a1ac"
       id="line7804"
       style="opacity:1;fill:none;stroke:#ffffff;stroke-width:3.83827;stroke-dasharray:none;stroke-opacity:0.533333" />
    <line
       x1="6.1425924"
       y1="259.77972"
       x2="953.85742"
       y2="259.77972"
       fill="#61a1ac"
       id="line7806"
       style="opacity:1;fill:none;stroke:#ffffff;stroke-width:3.83827;stroke-dasharray:none;stroke-opacity:0.533333" />
    <line
       x1="-32"
       y1="270"
       x2="992"
       y2="270"
       fill="#61a1ac"
       id="line7808"
       style="opacity:1;fill:none;stroke:#ffffff;stroke-width:3.83827;stroke-dasharray:none;stroke-opacity:0.533333" />
    <line
       x1="-76.820618"
       y1="282.00964"
       x2="1036.8207"
       y2="282.00964"
       fill="#61a1ac"
       id="line7810"
       style="opacity:1;fill:none;stroke:#ffffff;stroke-width:3.83827;stroke-dasharray:none;stroke-opacity:0.533333" />
    <line
       x1="-130.2413"
       y1="296.32367"
       x2="1090.2413"
       y2="296.32367"
       fill="#61a1ac"
       id="line7812"
       style="opacity:1;fill:none;stroke:#ffffff;stroke-width:3.83827;stroke-dasharray:none;stroke-opacity:0.533333" />
    <line
       x1="-194.99998"
       y1="313.67572"
       x2="1155"
       y2="313.67572"
       fill="#61a1ac"
       id="line7814"
       style="opacity:1;fill:none;stroke:#ffffff;stroke-width:3.83827;stroke-dasharray:none;stroke-opacity:0.533333" />
    <line
       x1="-275.1347"
       y1="335.14774"
       x2="1235.1346"
       y2="335.14774"
       fill="#61a1ac"
       id="line7816"
       style="opacity:1;fill:none;stroke:#ffffff;stroke-width:3.83827;stroke-dasharray:none;stroke-opacity:0.533333" />
    <line
       x1="-376.85944"
       y1="362.40482"
       x2="1336.8595"
       y2="362.40482"
       fill="#61a1ac"
       id="line7818"
       style="opacity:1;fill:none;stroke:#ffffff;stroke-width:3.83827;stroke-dasharray:none;stroke-opacity:0.533333" />
    <line
       x1="-510.25778"
       y1="398.14877"
       x2="1470.2578"
       y2="398.14877"
       fill="#61a1ac"
       id="line7820"
       style="opacity:1;fill:none;stroke:#ffffff;stroke-width:3.83827;stroke-dasharray:none;stroke-opacity:0.533333" />
    <line
       x1="-692.85052"
       y1="447.07437"
       x2="1652.8505"
       y2="447.07437"
       fill="#61a1ac"
       id="line7822"
       style="opacity:1;fill:none;stroke:#ffffff;stroke-width:3.83827;stroke-dasharray:none;stroke-opacity:0.533333" />
    <line
       x1="-958.0025"
       y1="518.12164"
       x2="1918.0026"
       y2="518.12164"
       fill="#61a1ac"
       id="line7824"
       style="opacity:1;fill:none;stroke:#ffffff;stroke-width:3.83827;stroke-dasharray:none;stroke-opacity:0.533333" />
    <line
       x1="-1378.064"
       y1="630.67676"
       x2="2338.064"
       y2="630.67676"
       fill="#61a1ac"
       id="line7826"
       style="opacity:1;fill:none;stroke:#ffffff;stroke-width:3.83827;stroke-dasharray:none;stroke-opacity:0.533333" />
    <line
       x1="-2144.8091"
       y1="836.12549"
       x2="3104.8091"
       y2="836.12549"
       fill="#61a1ac"
       id="line7828"
       style="opacity:1;fill:none;stroke:#ffffff;stroke-width:3.83827;stroke-dasharray:none;stroke-opacity:0.533333" />
    <line
       x1="-3988.9619"
       y1="1330.2648"
       x2="4948.9619"
       y2="1330.2648"
       fill="#61a1ac"
       id="line7830"
       style="opacity:1;fill:none;stroke:#ffffff;stroke-width:3.83827;stroke-dasharray:none;stroke-opacity:0.533333" />
    <line
       x1="-14546.043"
       y1="4159.0259"
       x2="15506.043"
       y2="4159.0259"
       fill="#61a1ac"
       id="line7832"
       style="opacity:1;fill:none;stroke:#ffffff;stroke-width:3.83827;stroke-dasharray:none;stroke-opacity:0.533333" />
  </g>
  <g
     id="g22"
     transform="matrix(1.3333333,0,0,-1.3333333,7.0261421,205.99007)"
     inkscape:label="Logo"
     style="stroke-width:0.075;stroke-dasharray:none">
    <g
       id="g1620"
       inkscape:label="Bare"
       style="stroke-width:0.075;stroke-dasharray:none">
      <path
         d="m 42.035522,123.1001 1.438539,-8.15796 -2.803524,-5.07876 -13.918963,-2.45435 -1.108216,6.2854 1.349031,0.23799 -2.69407,15.27859 -1.349023,-0.23799 -1.108121,6.28454 13.918962,2.45424 4.375361,-3.83573 1.252706,-7.10456 -1.160077,-2.09465 z m -5.787729,-3.29574 -0.881516,0.74031 -3.075175,-0.54222 0.878106,-4.98092 3.075277,0.54222 0.575025,0.99697 z m -1.810995,10.26906 -0.886378,0.76892 -3.07528,-0.54222 0.707451,-4.01236 3.075276,0.54222 0.570066,1.02569 z m 23.657934,11.5768 1.10812,-6.28486 -1.133026,-0.19994 7.630443,-14.40786 1.34893,0.23797 1.108412,-6.28564 -8.632315,-1.52217 -1.108216,6.28574 0.728464,0.12853 -0.542043,1.1796 -5.960918,-1.05107 -0.132326,-1.2985 0.728367,0.12824 1.108217,-6.28564 -8.605361,-1.5172 -1.108218,6.28541 1.348929,0.23769 2.242314,16.14907 -0.971124,-0.17133 -1.108119,6.2847 z m -4.857763,-16.29989 2.859279,0.50418 -2.20758,4.16121 z m 22.471106,-2.82796 1.348931,0.2377 1.108409,-6.28565 -8.875069,-1.56488 -1.10812,6.28574 1.348929,0.23798 -2.694064,15.27826 -1.34893,-0.23799 -1.108216,6.28487 13.918963,2.45425 4.375363,-3.83573 1.2527,-7.10457 -1.160268,-2.09464 1.801751,-1.54358 1.120086,-6.35219 1.348932,0.23798 1.108507,-6.2853 -7.526141,-1.32752 -1.827439,10.36392 -0.887545,0.77417 -3.074984,-0.54222 z m -1.986617,11.26624 3.075181,0.54222 0.570062,1.02567 -0.391038,2.21743 -0.886476,0.76893 -3.075176,-0.54223 z m 22.325453,-7.68007 3.938487,0.69439 -0.194549,1.10323 5.070651,0.89435 1.30299,-7.38875 -16.535316,-2.91572 -1.108408,6.28531 1.348927,0.23808 -2.693768,15.27859 -1.34893,-0.23799 -1.108217,6.28454 16.535312,2.91563 1.29678,-7.35459 -5.070869,-0.89413 -0.18866,1.07005 -3.938499,-0.6944 0.789857,-4.48063 0.91761,0.16189 -0.188657,1.07005 5.044213,0.88947 1.491185,-8.4581 -5.043826,-0.88916 -0.19469,1.10322 -0.917609,-0.16191 z"
         style="display:inline;fill:#ce72df;fill-opacity:1;fill-rule:nonzero;stroke:none;stroke-width:0.075;stroke-dasharray:none"
         id="path40"
         inkscape:label="BareBack" />
      <path
         d="m 41.166167,122.44104 -2.291152,1.99891 1.470645,2.65506 -1.079803,6.12384 -3.694379,3.23834 -12.565556,-2.21568 0.690324,-3.91551 1.348929,0.23807 3.11186,-17.6477 -1.348931,-0.23798 0.690615,-3.91628 12.567212,2.21597 2.365882,4.28591 z m -4.051553,-1.96428 0.749576,-4.2514 -1.025412,-1.77835 -4.416424,-0.77856 -1.296002,7.35004 4.416424,0.77885 z m -1.808757,10.25797 0.564909,-3.20335 -1.009463,-1.81639 -4.425567,-0.78021 -1.124951,6.38138 4.42518,0.7802 z m 22.041923,9.56241 -10.037869,-1.7703 0.690323,-3.91551 1.427351,0.25179 -2.589858,-18.65295 -1.040011,-0.1834 0.690618,-3.91629 6.693761,1.18019 -0.690324,3.9163 -1.121742,-0.19781 0.386468,3.78644 7.332714,1.29294 1.580107,-3.43946 -1.087494,-0.19166 0.690615,-3.91662 6.720522,1.18514 -0.690617,3.91662 -1.04011,-0.1835 -8.813285,16.64214 1.589156,0.2802 z m -5.315834,-16.38064 1.295999,9.27861 4.390248,-8.27609 z m 29.334745,-5.656 5.614541,0.99016 -0.690615,3.91619 -1.348931,-0.23798 -1.241414,7.04006 -2.291355,1.9631 1.475514,2.66382 -1.079707,6.12385 -3.694475,3.23833 -12.565557,-2.21567 0.690326,-3.91585 1.348926,0.23808 3.111959,-17.64766 -1.349027,-0.2377 0.690419,-3.91661 6.963473,1.22786 -0.690618,3.91661 -1.349026,-0.23808 -1.296,7.35001 4.426734,0.78082 1.569795,-1.36994 z m -8.392183,14.17513 -1.12495,6.38106 4.425274,0.78042 1.569894,-1.36186 0.564809,-3.20303 -1.009752,-1.81638 z m 24.135571,-1.40192 3.132321,0.55215 -1.073466,6.08897 -3.13253,-0.55234 0.188658,-1.07014 -2.829215,-0.49893 -1.207749,6.84975 5.850108,1.03142 0.188927,-1.07004 3.158997,0.55711 -0.87897,4.98526 -14.623636,-2.5784 0.690324,-3.91551 1.348932,0.23808 3.111665,-17.6477 -1.348934,-0.23798 0.690624,-3.91629 14.623525,2.57868 -0.88493,5.01942 -3.15903,-0.55711 0.19433,-1.10312 -5.84997,-1.03181 -1.213597,6.88284 2.828924,0.49892 z"
         style="display:inline;fill:#37a9dd;fill-opacity:1;fill-rule:evenodd;stroke:none;stroke-width:0.075;stroke-dasharray:none;filter:url(#filter1709)"
         id="path42"
         inkscape:label="Bare" />
    </g>
    <path
       d="m 53.028919,97.091697 0.225922,-0.122397 0.07345,-0.35668 -0.150812,-0.234706 c -2.734054,-0.289063 -4.762021,-0.880319 -6.077577,-1.771957 -1.32227,-0.887552 -1.904207,-2.054825 -1.751936,-3.497738 0.101772,-0.961489 0.622215,-1.690452 1.567654,-2.1855 0.94106,-0.502835 2.143264,-0.673002 3.598151,-0.519083 2.301569,0.242945 4.188651,1.073675 5.661148,2.493817 1.472787,1.419881 2.116215,2.976234 1.937772,4.665231 -0.07691,0.7264 -0.341417,1.446021 -0.787134,2.158734 -0.451461,0.711807 -1.076498,1.393292 -1.886792,2.043432 l -3.428756,2.7725 c -0.94962,0.76289 -1.689566,1.5536 -2.230151,2.3595 -0.535622,0.81275 -0.844249,1.60597 -0.927243,2.39396 -0.181266,1.71266 0.546033,3.28387 2.180433,4.72071 1.635274,1.43636 3.73281,2.29021 6.280345,2.55913 1.47892,0.15636 2.673342,0.01 3.589882,-0.44045 0.915079,-0.44435 1.418693,-1.12667 1.516085,-2.04639 0.107806,-1.0213 -0.384711,-1.93635 -1.471716,-2.74973 -1.092163,-0.81465 -2.540141,-1.31989 -4.349093,-1.51107 -0.173772,-0.0182 -0.361071,-0.0319 -0.560724,-0.0411 -0.199654,-0.009 -0.436087,-0.0149 -0.696454,-0.0185 l -0.20705,0.11782 -0.03162,0.30054 0.125413,0.18895 c 1.6165,0.17075 2.858208,0.55798 3.711213,1.16471 0.854173,0.60614 1.235869,1.36377 1.140519,2.26511 -0.0703,0.66685 -0.415069,1.16519 -1.038455,1.4887 -0.624648,0.32846 -1.431923,0.43773 -2.42922,0.33235 -1.658435,-0.17512 -3.028671,-0.78769 -4.108088,-1.83788 -1.086129,-1.05 -1.560553,-2.20002 -1.429297,-3.44441 0.07305,-0.6906 0.332074,-1.35668 0.770109,-1.99677 0.444842,-0.6396 1.159685,-1.36605 2.150174,-2.1736 l 3.552906,-2.91796 c 0.836465,-0.67123 1.497893,-1.40317 1.975527,-2.19148 0.479091,-0.793468 0.760668,-1.614761 0.8495,-2.45626 0.0873,-0.823533 -0.05232,-1.688511 -0.411469,-2.601359 -0.360781,-0.907108 -0.897277,-1.747731 -1.60745,-2.510065 -1.014617,-1.091675 -2.221883,-1.972903 -3.627925,-2.63726 -1.406824,-0.665201 -2.936431,-1.082043 -4.588736,-1.256588 -2.145502,-0.226697 -3.899677,-0.01742 -5.251331,0.63653 -1.356419,0.652267 -2.103274,1.624266 -2.239784,2.916399 -0.16414,1.551098 0.576391,2.826368 2.225968,3.832813 1.649872,1.006931 4.106434,1.679949 7.363656,2.024079 z M 70.97735,110.39984 c 0.918975,0.0973 1.728778,-0.13932 2.426303,-0.70996 0.703848,-0.56372 1.104225,-1.305 1.201329,-2.22424 0.09736,-0.91982 -0.139231,-1.72876 -0.70988,-2.42733 -0.562962,-0.70382 -1.305146,-1.10429 -2.22441,-1.20139 -0.919753,-0.0971 -1.728391,0.13952 -2.426986,0.70996 -0.703069,0.56392 -1.103545,1.30562 -1.200651,2.22535 -0.09695,0.91923 0.139622,1.72784 0.709105,2.42622 0.564036,0.70383 1.30544,1.1043 2.22519,1.20139 z m 0.125804,-1.18981 c -0.582517,-0.0615 -1.060734,-0.3128 -1.422291,-0.74634 -0.361653,-0.43238 -0.513339,-0.94736 -0.451556,-1.52976 0.06211,-0.58941 0.31826,-1.06625 0.771177,-1.43804 0.458661,-0.37099 0.973852,-0.52928 1.544499,-0.46915 0.588844,0.0623 1.059665,0.32486 1.41869,0.78247 0.358346,0.45728 0.510033,0.97713 0.447667,1.56653 -0.06013,0.57063 -0.316118,1.03609 -0.766705,1.39521 -0.45681,0.35297 -0.964797,0.49999 -1.541481,0.43908 z m 1.225656,-7.63073 c -0.205783,0.16102 -0.454574,0.27408 -0.754054,0.34578 -0.298702,0.072 -0.604315,0.0878 -0.922867,0.0541 -0.56481,-0.0595 -1.13546,-0.35659 -1.722939,-0.89248 -0.581644,-0.5359 -1.162511,-1.30783 -1.731504,-2.30425 -0.745976,-1.336309 -1.296193,-2.567504 -1.640429,-3.679513 -0.344239,-1.11814 -0.47248,-2.091212 -0.384229,-2.926885 0.05103,-0.48017 0.193915,-0.854363 0.422852,-1.122238 0.228847,-0.266984 0.51412,-0.383058 0.857482,-0.346961 0.840651,0.08883 1.796595,1.107923 2.862001,3.049011 1.063459,1.947703 2.064358,4.557105 3.013687,7.823436 z m -1.169999,-5.72016 c -0.944077,-2.165837 -1.815859,-3.753161 -2.61545,-4.754814 -0.793168,-1.001184 -1.604339,-1.549179 -2.42786,-1.636355 -0.913136,-0.09651 -1.670301,0.163845 -2.270433,0.781599 -0.600712,0.623074 -0.963046,1.526872 -1.089924,2.728782 -0.113937,1.075622 0.08552,2.239003 0.591566,3.489476 0.512468,1.24532 1.27917,2.444212 2.311203,3.599032 0.713579,0.78565 1.497598,1.4095 2.366465,1.87758 0.862444,0.46245 1.762638,0.74605 2.70535,0.84588 0.54691,0.0576 1.094108,0.0543 1.629146,-0.005 0.535037,-0.059 1.069881,-0.1729 1.609882,-0.33479 l 0.2016,-0.24577 0.0078,-0.0722 c 0.02979,-0.28186 -0.05174,-0.88675 -0.251514,-1.81891 -0.105664,-0.49173 -0.180388,-0.87598 -0.234197,-1.17351 l -1.038359,-5.700342 c -0.0095,-0.0251 -0.01757,-0.06227 -0.02459,-0.111985 -0.06241,-0.510439 -0.08057,-0.907594 -0.05261,-1.171862 0.02044,-0.192562 0.104012,-0.348039 0.257937,-0.483472 0.147211,-0.129888 0.310765,-0.185929 0.485414,-0.167444 0.56452,0.05964 1.350001,0.792982 2.350413,2.199306 1.005566,1.406521 2.468434,3.839153 4.393751,7.299899 0.04474,-0.0806 0.08286,-0.1547 0.110335,-0.23721 0.02687,-0.0824 0.04108,-0.16024 0.04995,-0.24353 0.04197,-0.39686 -0.256184,-1.14596 -0.89961,-2.246682 l -0.153633,-0.265029 -0.180389,-0.305017 c -2.922725,-4.896598 -5.080876,-7.415808 -6.46269,-7.561652 -0.577463,-0.061 -1.037775,0.04271 -1.376176,0.310271 -0.343652,0.26143 -0.546129,0.683721 -0.607133,1.261162 -0.03207,0.305895 0.002,0.789965 0.09458,1.462077 0.09982,0.666885 0.272431,1.560275 0.519277,2.679971"
       style="fill:#ce72df;fill-opacity:1;fill-rule:nonzero;stroke:none;stroke-width:0.075;stroke-dasharray:none;filter:url(#filter2225)"
       id="path44"
       inkscape:label="Så" />
    <g
       id="g1567"
       inkscape:label="80"
       style="stroke-width:0.075;stroke-dasharray:none">
      <path
         d="m 32.582603,51.846694 c -3.282326,1.394164 -5.684595,3.299933 -7.17091,5.747924 -1.503923,2.430672 -2.246106,5.11152 -2.246106,8.007471 0,4.972956 1.734519,9.078907 5.188085,12.315111 3.456099,3.23854 8.3809,4.865432 14.748035,4.865432 6.321211,0 11.215262,-1.626892 14.701718,-4.865432 3.484509,-3.236204 5.236738,-7.342155 5.236738,-12.315111 0,-3.082659 -0.805915,-5.824997 -2.417449,-8.2402 -1.596359,-2.40197 -3.857644,-4.24625 -6.769074,-5.515195 3.701872,-1.486625 6.505688,-3.655866 8.442099,-6.505683 1.921234,-2.867556 2.880778,-6.149878 2.880778,-9.884823 0,-6.165047 -1.952173,-11.168959 -5.871307,-15.02659 -3.903763,-3.855411 -9.109558,-5.776647 -15.615146,-5.776647 -6.040122,0 -11.059202,1.594132 -15.088088,4.786554 -4.740324,3.747876 -7.109417,8.922735 -7.109417,15.474439 0,3.609724 0.897957,6.924938 2.678595,9.946012 1.782779,3.021476 4.586594,5.344248 8.411449,6.986738 z m 2.665362,12.826703 c 0,-2.540355 0.711534,-4.538356 2.138592,-5.963365 1.440197,-1.427048 3.346056,-2.138594 5.71515,-2.138594 2.417447,0 4.338388,0.726723 5.77897,2.169437 1.440198,1.440292 2.169151,3.438187 2.169151,5.978639 0,2.401971 -0.713485,4.322918 -2.138598,5.763393 -1.440195,1.440281 -3.330585,2.167004 -5.669124,2.167004 -2.448,0 -4.38441,-0.726723 -5.824702,-2.182377 -1.440487,-1.45789 -2.169439,-3.394307 -2.169439,-5.794137 z M 34.040506,36.139106 c 0,-3.547936 0.898053,-6.305739 2.694066,-8.288453 1.798246,-1.982426 4.028886,-2.974762 6.707477,-2.974762 2.634814,0 4.803959,0.961394 6.523105,2.867243 1.719342,1.903521 2.570983,4.661328 2.570983,8.255578 0,3.144163 -0.867112,5.669114 -2.619341,7.574688 -1.749889,1.905768 -3.965156,2.867556 -6.64375,2.867556 -3.11332,0 -5.423158,-1.084475 -6.955783,-3.25401 -1.519397,-2.169144 -2.276757,-4.507396 -2.276757,-7.04784 z M 94.88741,82.782632 c 6.44411,0 11.48094,-2.309833 15.12116,-6.924829 4.3208,-5.453996 6.49019,-14.515281 6.49019,-27.155273 0,-12.627151 -2.18454,-21.703514 -6.53839,-27.219104 -3.60974,-4.553716 -8.62885,-6.830475 -15.07296,-6.830475 -6.475032,0 -11.693768,2.494322 -15.661257,7.480603 -3.965453,4.98815 -5.947981,13.895805 -5.947981,26.691957 0,12.563131 2.184714,21.611375 6.536336,27.12443 3.60973,4.555938 8.628712,6.832691 15.072902,6.832691 z m 0,-10.596037 c -1.517152,0 -2.880773,-0.496134 -4.057579,-1.488569 -1.192093,-0.974922 -2.123129,-2.74007 -2.772976,-5.29784 -0.867406,-3.298083 -1.302032,-8.874769 -1.302032,-16.697656 0,-7.838364 0.388604,-13.2154 1.161338,-16.142202 0.775071,-2.92885 1.752224,-4.880927 2.929044,-5.855646 1.176903,-0.977153 2.525053,-1.455667 4.042205,-1.455667 1.519405,0 2.882718,0.493985 4.075064,1.486316 1.176796,0.974914 2.107576,2.742324 2.757676,5.298123 0.86716,3.269093 1.30176,8.830712 1.30176,16.669076 0,7.822887 -0.38852,13.197687 -1.16348,16.124494 -0.77293,2.928738 -1.74982,4.89608 -2.926726,5.871002 -1.17675,0.992435 -2.524889,1.488569 -4.044294,1.488569 z"
         style="display:inline;fill:#55b3e6;fill-opacity:1;fill-rule:nonzero;stroke:#ffffff;stroke-width:0.075;stroke-linecap:butt;stroke-linejoin:miter;stroke-miterlimit:22.9256;stroke-dasharray:none;stroke-opacity:1"
         id="path26"
         inkscape:label="80fill" />
      <path
         d="m 36.561575,50.494352 c -3.282323,1.394179 -5.684496,3.30004 -7.17081,5.748036 -1.504021,2.430673 -2.246206,5.11152 -2.246206,8.007358 0,4.97307 1.734519,9.078923 5.188185,12.315226 3.4561,3.238442 8.3808,4.86543 14.748033,4.86543 6.321111,0 11.215264,-1.626988 14.70172,-4.86543 3.48441,-3.236303 5.236637,-7.342156 5.236637,-12.315226 0,-3.082577 -0.805913,-5.824884 -2.417449,-8.240086 -1.596359,-2.402002 -3.857644,-4.246249 -6.768974,-5.515308 3.701773,-1.486512 6.505591,-3.655753 8.442001,-6.50559 1.92123,-2.867537 2.88078,-6.149858 2.88078,-9.884826 0,-6.165032 -1.952077,-11.168936 -5.871311,-15.026584 -3.903665,-3.855395 -9.109457,-5.776728 -15.615146,-5.776728 -6.040119,0 -11.059199,1.594215 -15.088087,4.786634 -4.740226,3.747894 -7.109415,8.922752 -7.109415,15.474456 0,3.609718 0.898052,6.924829 2.678594,9.946013 1.782877,3.021474 4.586691,5.344247 8.411448,6.986625 z m 2.665363,12.826784 c 0,-2.540421 0.711631,-4.538327 2.138594,-5.963334 1.440293,-1.427056 3.346056,-2.138594 5.715245,-2.138594 2.41735,0 4.338389,0.726718 5.778873,2.169437 1.440295,1.440281 2.169245,3.438188 2.169245,5.978608 0,2.402002 -0.713579,4.322918 -2.138594,5.763425 -1.440294,1.440281 -3.330584,2.167005 -5.669125,2.167005 -2.448098,0 -4.384508,-0.726724 -5.824703,-2.182475 C 39.955889,67.657382 39.226938,65.7209 39.226938,63.321136 Z M 38.019477,34.786877 c 0,-3.547937 0.898056,-6.305743 2.694067,-8.288473 1.798246,-1.982523 4.028984,-2.974853 6.707578,-2.974853 2.634714,0 4.803958,0.961486 6.523006,2.867246 1.719342,1.90363 2.571082,4.661419 2.571082,8.255684 0,3.144165 -0.867211,5.669115 -2.619342,7.574592 -1.749988,1.905862 -3.965255,2.867539 -6.643849,2.867539 -3.113223,0 -5.423157,-1.084475 -6.955782,-3.253913 -1.519396,-2.169147 -2.27676,-4.507402 -2.27676,-7.047822 z m 60.846927,46.643525 c 6.444226,0 11.480866,-2.309833 15.121246,-6.924828 4.32072,-5.453997 6.49023,-14.51531 6.49023,-27.155374 0,-12.627051 -2.18474,-21.703528 -6.53849,-27.219023 -3.60977,-4.553803 -8.62876,-6.830553 -15.072986,-6.830553 -6.475051,0 -11.693786,2.494403 -15.661181,7.480604 -3.965548,4.988238 -5.947981,13.895803 -5.947981,26.692053 0,12.5631 2.184619,21.611376 6.536238,27.124431 3.60973,4.555937 8.628814,6.83269 15.072924,6.83269 z m 0,-10.596068 c -1.517167,0 -2.880788,-0.496201 -4.057608,-1.488539 -1.191987,-0.974921 -2.12312,-2.7401 -2.77287,-5.297839 C 91.168523,60.749872 90.7338,55.17309 90.7338,47.3502 c 0,-7.838288 0.388603,-13.215323 1.161435,-16.142203 0.774972,-2.92875 1.752125,-4.88083 2.929033,-5.855558 1.176818,-0.977158 2.524969,-1.455653 4.042136,-1.455653 1.519356,0 2.882686,0.493868 4.074966,1.486301 1.17691,0.974922 2.10782,2.74224 2.75775,5.298132 0.86722,3.269089 1.30181,8.830693 1.30181,16.668981 0,7.82289 -0.38859,13.197786 -1.16362,16.124587 -0.77279,2.928731 -1.74964,4.896087 -2.92645,5.871008 -1.17689,0.992338 -2.5251,1.488539 -4.044456,1.488539"
         style="display:inline;fill:#5bcaff;fill-opacity:1;fill-rule:nonzero;stroke:none;stroke-width:0.075;stroke-dasharray:none;filter:url(#filter1769)"
         id="path46"
         inkscape:label="80glow" />
      <path
         d="m 32.582603,51.846694 c -3.282326,1.394164 -5.684595,3.299933 -7.17091,5.747924 -1.503923,2.430672 -2.246106,5.11152 -2.246106,8.007471 0,4.972956 1.734519,9.078907 5.188085,12.315111 3.456099,3.23854 8.3809,4.865432 14.748035,4.865432 6.321211,0 11.215262,-1.626892 14.701718,-4.865432 3.484509,-3.236204 5.236738,-7.342155 5.236738,-12.315111 0,-3.082659 -0.805915,-5.824997 -2.417449,-8.2402 -1.596359,-2.40197 -3.857644,-4.24625 -6.769074,-5.515195 3.701872,-1.486625 6.505688,-3.655866 8.442099,-6.505683 1.921234,-2.867556 2.880778,-6.149878 2.880778,-9.884823 0,-6.165047 -1.952173,-11.168959 -5.871307,-15.02659 -3.903763,-3.855411 -9.109558,-5.776647 -15.615146,-5.776647 -6.040122,0 -11.059202,1.594132 -15.088088,4.786554 -4.740324,3.747876 -7.109417,8.922735 -7.109417,15.474439 0,3.609724 0.897957,6.924938 2.678595,9.946012 1.782779,3.021476 4.586594,5.344248 8.411449,6.986738 z m 2.665362,12.826703 c 0,-2.540355 0.711534,-4.538356 2.138592,-5.963365 1.440197,-1.427048 3.346056,-2.138594 5.71515,-2.138594 2.417447,0 4.338388,0.726723 5.77897,2.169437 1.440198,1.440292 2.169151,3.438187 2.169151,5.978639 0,2.401971 -0.713485,4.322918 -2.138598,5.763393 -1.440195,1.440281 -3.330585,2.167004 -5.669124,2.167004 -2.448,0 -4.38441,-0.726723 -5.824702,-2.182377 -1.440487,-1.45789 -2.169439,-3.394307 -2.169439,-5.794137 z M 34.040506,36.139106 c 0,-3.547936 0.898053,-6.305739 2.694066,-8.288453 1.798246,-1.982426 4.028886,-2.974762 6.707477,-2.974762 2.634814,0 4.803959,0.961394 6.523105,2.867243 1.719342,1.903521 2.570983,4.661328 2.570983,8.255578 0,3.144163 -0.867112,5.669114 -2.619341,7.574688 -1.749889,1.905768 -3.965156,2.867556 -6.64375,2.867556 -3.11332,0 -5.423158,-1.084475 -6.955783,-3.25401 -1.519397,-2.169144 -2.276757,-4.507396 -2.276757,-7.04784 z M 94.88741,82.782632 c 6.44411,0 11.48094,-2.309833 15.12116,-6.924829 4.3208,-5.453996 6.49019,-14.515281 6.49019,-27.155273 0,-12.627151 -2.18454,-21.703514 -6.53839,-27.219104 -3.60974,-4.553716 -8.62885,-6.830475 -15.07296,-6.830475 -6.475032,0 -11.693768,2.494322 -15.661257,7.480603 -3.965453,4.98815 -5.947981,13.895805 -5.947981,26.691957 0,12.563131 2.184714,21.611375 6.536336,27.12443 3.60973,4.555938 8.628712,6.832691 15.072902,6.832691 z m 0,-10.596037 c -1.517152,0 -2.880773,-0.496134 -4.057579,-1.488569 -1.192093,-0.974922 -2.123129,-2.74007 -2.772976,-5.29784 -0.867406,-3.298083 -1.302032,-8.874769 -1.302032,-16.697656 0,-7.838364 0.388604,-13.2154 1.161338,-16.142202 0.775071,-2.92885 1.752224,-4.880927 2.929044,-5.855646 1.176903,-0.977153 2.525053,-1.455667 4.042205,-1.455667 1.519405,0 2.882718,0.493985 4.075064,1.486316 1.176796,0.974914 2.107576,2.742324 2.757676,5.298123 0.86716,3.269093 1.30176,8.830712 1.30176,16.669076 0,7.822887 -0.38852,13.197687 -1.16348,16.124494 -0.77293,2.928738 -1.74982,4.89608 -2.926726,5.871002 -1.17675,0.992435 -2.524889,1.488569 -4.044294,1.488569 z"
         style="fill:none;stroke:#ffffff;stroke-width:0.075;stroke-linecap:butt;stroke-linejoin:miter;stroke-miterlimit:22.9256;stroke-dasharray:none;stroke-opacity:1"
         id="path48"
         inkscape:label="80" />
      <path
         d="m 55.916344,79.296477 c 3.596011,-0.719491 6.55677,-2.164474 8.888107,-4.330117 3.484511,-3.236204 5.236639,-7.342155 5.236639,-12.315096 0,-3.082674 -0.805914,-5.825012 -2.41735,-8.240214 -1.596355,-2.401971 -3.857744,-4.24625 -6.769072,-5.515195 3.701775,-1.486594 6.505591,-3.655739 8.442002,-6.505684 1.92133,-2.867557 2.880776,-6.149879 2.880776,-9.884814 0,-6.164958 -1.952075,-11.168856 -5.871305,-15.026592 -3.903668,-3.855407 -9.10946,-5.776638 -15.615149,-5.776638 -5.180692,0 -9.610054,1.173016 -13.308034,3.521193 1.941958,-0.428895 4.019257,-0.643537 6.233936,-0.643537 6.505687,0 11.711482,1.921336 15.615245,5.776743 3.919133,3.857635 5.871309,8.861547 5.871309,15.026586 0,3.734952 -0.959547,7.017275 -2.880778,9.884831 -1.936413,2.849816 -4.740227,5.019059 -8.442098,6.505586 2.911428,1.269042 5.172713,3.113318 6.769071,5.515292 1.611532,2.415202 2.417352,5.157541 2.417352,8.240183 0,4.972973 -1.752134,9.078826 -5.23664,12.315128 -0.56734,0.526752 -1.171849,1.010824 -1.814011,1.452345 z M 42.248993,61.722654 c 0,-2.116801 0.494173,-3.856877 1.484657,-5.202782 -0.230107,-0.0144 -0.46508,-0.0215 -0.705015,-0.0215 -2.36909,0 -4.27495,0.711545 -5.715145,2.138595 -1.427059,1.425005 -2.138598,3.422912 -2.138598,5.963364 0,2.399829 0.728954,4.336247 2.16944,5.794137 1.440291,1.455654 3.376702,2.182377 5.824703,2.182377 2.338539,0 4.228931,-0.726723 5.669124,-2.167004 0.230304,-0.232728 0.441828,-0.47792 0.634865,-0.735869 C 47.38551,69.534744 45.704214,68.8163 44.418429,67.516697 42.977946,66.058805 42.248993,64.122389 42.248993,61.722656 Z M 41.041532,33.188279 c 0,-3.547948 0.897957,-6.30573 2.693967,-8.288454 l 0.08057,-0.08737 c -0.1475,-0.0064 -0.296463,-0.0097 -0.44708,-0.0097 -2.678595,0 -4.909326,0.992332 -6.70748,2.974854 -1.79611,1.982717 -2.694066,4.740525 -2.694066,8.288461 0,2.540434 0.757365,4.878694 2.276759,7.047839 1.532628,2.169534 3.842466,3.253912 6.955684,3.253912 2.678694,0 4.893862,-0.961689 6.643851,-2.867458 l 0.0151,-0.01683 c -2.904219,-0.09321 -5.076966,-1.175546 -6.540611,-3.247298 -1.51949,-2.169242 -2.276755,-4.507486 -2.276755,-7.047925 z m 65.015088,46.286637 c 4.48895,-0.809976 8.13842,-2.999845 10.95303,-6.567952 4.32061,-5.453997 6.49021,-14.515182 6.49021,-27.155273 0,-12.627144 -2.18464,-21.703515 -6.53853,-27.219002 -3.6097,-4.553801 -8.62883,-6.830562 -15.07292,-6.830562 -4.258677,0 -7.974067,1.079221 -11.147118,3.236497 1.297357,-0.239067 2.65514,-0.358841 4.073051,-0.358841 6.444147,0 11.463117,2.276757 15.072917,6.830569 4.35384,5.515593 6.53848,14.591959 6.53848,27.219013 0,12.640074 -2.16943,21.701373 -6.49022,27.15537 -1.15257,1.461491 -2.44585,2.691227 -3.8789,3.690181 z M 100.16194,69.002735 C 99.321593,68.7655 98.542108,68.347134 97.830753,67.747295 96.63877,66.772296 95.707638,65.007116 95.057878,62.449378 94.190472,59.151283 93.755751,53.574577 93.755751,45.751691 c 0,-7.838358 0.388604,-13.215394 1.161434,-16.142202 0.463629,-1.751637 0.999542,-3.153893 1.607163,-4.206554 -0.545544,-0.151487 -1.1159,-0.226987 -1.710005,-0.226987 -1.517251,0 -2.865302,0.478508 -4.042209,1.455659 -1.176818,0.974721 -2.153973,2.926802 -2.929044,5.855556 -0.772732,2.926893 -1.161338,8.303928 -1.161338,16.142202 0,7.822887 0.434625,13.399669 1.302032,16.697754 0.649751,2.55777 1.580882,4.322916 2.772879,5.297838 1.176909,0.992337 2.540429,1.488571 4.05768,1.488571 1.519401,0 2.867568,-0.496234 4.044381,-1.488571 0.465867,-0.385773 0.900208,-0.927248 1.303216,-1.622222 z"
         style="fill:#324149;fill-opacity:1;fill-rule:nonzero;stroke:#ffffff;stroke-width:0.075;stroke-linecap:butt;stroke-linejoin:miter;stroke-miterlimit:22.9256;stroke-dasharray:none;stroke-opacity:1"
         id="path50"
         inkscape:label="80shadow" />
    </g>
  </g>
</svg>
